<?xml version="1.0" encoding="UTF-8" standalone="no"?>
<!-- Created with Inkscape (http://www.inkscape.org/) -->

<svg
   xmlns:dc="http://purl.org/dc/elements/1.1/"
   xmlns:cc="http://creativecommons.org/ns#"
   xmlns:rdf="http://www.w3.org/1999/02/22-rdf-syntax-ns#"
   xmlns:svg="http://www.w3.org/2000/svg"
   xmlns="http://www.w3.org/2000/svg"
   xmlns:sodipodi="http://sodipodi.sourceforge.net/DTD/sodipodi-0.dtd"
   xmlns:inkscape="http://www.inkscape.org/namespaces/inkscape"
   width="180.35516mm"
   height="107.39719mm"
   viewBox="0 0 180.35516 107.39719"
   version="1.1"
   id="svg8"
   inkscape:version="0.92.3 (2405546, 2018-03-11)"
   sodipodi:docname="1 to 5.svg">
  <defs
     id="defs2">
    <clipPath
       clipPathUnits="userSpaceOnUse"
       id="clipPath35">
      <rect
         id="rect37"
         width="46.302082"
         height="79.752975"
         x="28.726189"
         y="208.1756"
         style="stroke-width:0.26458332" />
    </clipPath>
    <clipPath
       clipPathUnits="userSpaceOnUse"
       id="clipPath43">
      <rect
         id="rect45"
         width="46.693668"
         height="79.817131"
         x="29.104166"
         y="207.23065"
         style="stroke-width:0.26875186" />
    </clipPath>
    <clipPath
       clipPathUnits="userSpaceOnUse"
       id="clipPath50">
      <path
         style="fill:#ff0000;stroke-width:0.26458332"
         d="m 73.360285,209.92829 c 3.023812,3.93471 2.687918,34.32546 1.504278,62.3015 -0.498983,11.79372 -3.428201,13.10526 -12.086735,13.47655 -7.556209,0.32401 -27.40473,2.66436 -32.477512,-4.44926 -2.960031,-4.15089 -1.671579,-19.04718 -1.671576,-23.89277 2e-6,-4.8456 -4.180603,-48.91226 0.91759,-48.91226 5.098196,0 40.861314,-2.36585 43.813955,1.47624 z"
         id="path52"
         inkscape:connector-curvature="0"
         sodipodi:nodetypes="sssssss" />
    </clipPath>
    <clipPath
       id="clipPath103"
       clipPathUnits="userSpaceOnUse">
      <path
         style="clip-rule:evenodd"
         inkscape:connector-curvature="0"
         id="path101"
         d="M 50.8,244.4 H 561 V 547.8 H 50.8 Z" />
    </clipPath>
    <clipPath
       id="clipPath115"
       clipPathUnits="userSpaceOnUse">
      <path
         style="clip-rule:evenodd"
         inkscape:connector-curvature="0"
         id="path113"
         d="M 50.8,244.4 H 561 V 547.8 H 50.8 Z" />
    </clipPath>
    <clipPath
       id="clipPath127"
       clipPathUnits="userSpaceOnUse">
      <path
         style="clip-rule:evenodd"
         inkscape:connector-curvature="0"
         id="path125"
         d="M 50.8,244.4 H 561 V 547.8 H 50.8 Z" />
    </clipPath>
    <clipPath
       id="clipPath139"
       clipPathUnits="userSpaceOnUse">
      <path
         style="clip-rule:evenodd"
         inkscape:connector-curvature="0"
         id="path137"
         d="M 50.8,244.4 H 561 V 547.8 H 50.8 Z" />
    </clipPath>
    <clipPath
       id="clipPath151"
       clipPathUnits="userSpaceOnUse">
      <path
         style="clip-rule:evenodd"
         inkscape:connector-curvature="0"
         id="path149"
         d="M 50.8,244.4 H 561 V 547.8 H 50.8 Z" />
    </clipPath>
    <clipPath
       id="clipPath163"
       clipPathUnits="userSpaceOnUse">
      <path
         style="clip-rule:evenodd"
         inkscape:connector-curvature="0"
         id="path161"
         d="M 50.8,244.4 H 561 V 547.8 H 50.8 Z" />
    </clipPath>
    <clipPath
       id="clipPath175"
       clipPathUnits="userSpaceOnUse">
      <path
         style="clip-rule:evenodd"
         inkscape:connector-curvature="0"
         id="path173"
         d="M 50.8,244.4 H 561 V 547.8 H 50.8 Z" />
    </clipPath>
    <clipPath
       id="clipPath187"
       clipPathUnits="userSpaceOnUse">
      <path
         style="clip-rule:evenodd"
         inkscape:connector-curvature="0"
         id="path185"
         d="M 50.8,244.4 H 561 V 547.8 H 50.8 Z" />
    </clipPath>
    <clipPath
       id="clipPath199"
       clipPathUnits="userSpaceOnUse">
      <path
         style="clip-rule:evenodd"
         inkscape:connector-curvature="0"
         id="path197"
         d="M 50.8,244.4 H 561 V 547.8 H 50.8 Z" />
    </clipPath>
    <clipPath
       id="clipPath211"
       clipPathUnits="userSpaceOnUse">
      <path
         style="clip-rule:evenodd"
         inkscape:connector-curvature="0"
         id="path209"
         d="M 50.8,244.4 H 561 V 547.8 H 50.8 Z" />
    </clipPath>
    <clipPath
       id="clipPath223"
       clipPathUnits="userSpaceOnUse">
      <path
         style="clip-rule:evenodd"
         inkscape:connector-curvature="0"
         id="path221"
         d="M 50.8,244.4 H 561 V 547.8 H 50.8 Z" />
    </clipPath>
    <clipPath
       id="clipPath235"
       clipPathUnits="userSpaceOnUse">
      <path
         style="clip-rule:evenodd"
         inkscape:connector-curvature="0"
         id="path233"
         d="M 50.8,244.4 H 561 V 547.8 H 50.8 Z" />
    </clipPath>
    <clipPath
       id="clipPath247"
       clipPathUnits="userSpaceOnUse">
      <path
         style="clip-rule:evenodd"
         inkscape:connector-curvature="0"
         id="path245"
         d="M 50.8,244.4 H 561 V 547.8 H 50.8 Z" />
    </clipPath>
    <clipPath
       id="clipPath259"
       clipPathUnits="userSpaceOnUse">
      <path
         style="clip-rule:evenodd"
         inkscape:connector-curvature="0"
         id="path257"
         d="M 50.8,244.4 H 561 V 547.8 H 50.8 Z" />
    </clipPath>
    <clipPath
       id="clipPath275"
       clipPathUnits="userSpaceOnUse">
      <path
         style="clip-rule:evenodd"
         inkscape:connector-curvature="0"
         id="path273"
         d="M 50.8,244.4 H 561 V 547.8 H 50.8 Z" />
    </clipPath>
    <clipPath
       id="clipPath293"
       clipPathUnits="userSpaceOnUse">
      <path
         style="clip-rule:evenodd"
         inkscape:connector-curvature="0"
         id="path291"
         d="M 50.8,244.4 H 561 V 547.8 H 50.8 Z" />
    </clipPath>
    <clipPath
       id="clipPath311"
       clipPathUnits="userSpaceOnUse">
      <path
         style="clip-rule:evenodd"
         inkscape:connector-curvature="0"
         id="path309"
         d="M 50.8,244.4 H 561 V 547.8 H 50.8 Z" />
    </clipPath>
    <clipPath
       id="clipPath327"
       clipPathUnits="userSpaceOnUse">
      <path
         style="clip-rule:evenodd"
         inkscape:connector-curvature="0"
         id="path325"
         d="M 50.8,244.4 H 561 V 547.8 H 50.8 Z" />
    </clipPath>
    <clipPath
       id="clipPath345"
       clipPathUnits="userSpaceOnUse">
      <path
         style="clip-rule:evenodd"
         inkscape:connector-curvature="0"
         id="path343"
         d="M 50.8,244.4 H 561 V 547.8 H 50.8 Z" />
    </clipPath>
  </defs>
  <sodipodi:namedview
     id="base"
     pagecolor="#ffffff"
     bordercolor="#666666"
     borderopacity="1.0"
     inkscape:pageopacity="0.0"
     inkscape:pageshadow="2"
     inkscape:zoom="0.7"
     inkscape:cx="340.82866"
     inkscape:cy="202.95534"
     inkscape:document-units="mm"
     inkscape:current-layer="layer1"
     showgrid="false"
     inkscape:window-width="1920"
     inkscape:window-height="1017"
     inkscape:window-x="1592"
     inkscape:window-y="-8"
     inkscape:window-maximized="1"
     fit-margin-top="0"
     fit-margin-left="0"
     fit-margin-right="0"
     fit-margin-bottom="0" />
  <metadata
     id="metadata5">
    <rdf:RDF>
      <cc:Work
         rdf:about="">
        <dc:format>image/svg+xml</dc:format>
        <dc:type
           rdf:resource="http://purl.org/dc/dcmitype/StillImage" />
        <dc:title></dc:title>
      </cc:Work>
    </rdf:RDF>
  </metadata>
  <g
     inkscape:label="Layer 1"
     inkscape:groupmode="layer"
     id="layer1"
     transform="translate(24.54159,-145.16762)">
    <g
       transform="matrix(0.35277777,0,0,-0.35277777,-42.287547,338.57327)"
       inkscape:label="1 to 5"
       id="g21">
      <path
         inkscape:connector-curvature="0"
         id="path23"
         style="fill:#ffffff;fill-opacity:1;fill-rule:evenodd;stroke:none"
         d="M 50.83,244.33 H 561.02 V 547.71 H 50.83 Z" />
      <path
         inkscape:connector-curvature="0"
         id="path25"
         style="fill:none;stroke:#d9d9d9;stroke-width:1.05299997;stroke-linecap:butt;stroke-linejoin:round;stroke-miterlimit:10;stroke-dasharray:none;stroke-opacity:1"
         d="M 117.44,344.37 H 478.1 M 117.44,382 H 478.1 M 117.44,419.34 H 478.1 M 117.44,456.97 H 478.1 M 117.44,494.6 H 478.1 M 117.44,532.26 H 478.1" />
      <path
         inkscape:connector-curvature="0"
         id="path27"
         style="fill:none;stroke:#d9d9d9;stroke-width:1.05299997;stroke-linecap:butt;stroke-linejoin:round;stroke-miterlimit:10;stroke-dasharray:none;stroke-opacity:1"
         d="M 117.44,306.67 H 478.1" />
      <path
         inkscape:connector-curvature="0"
         id="path29"
         style="fill:none;stroke:#d9d9d9;stroke-width:1.05299997;stroke-linecap:butt;stroke-linejoin:round;stroke-miterlimit:10;stroke-dasharray:none;stroke-opacity:1"
         d="m 117.44,306.67 v -4.01 m 72.05,4.01 v -4.01 m 72.17,4.01 v -4.01 m 72.16,4.01 v -4.01 m 72.16,4.01 v -4.01 m 72.12,4.01 v -4.01" />
      <path
         inkscape:connector-curvature="0"
         id="path31"
         style="fill:none;stroke:#000000;stroke-width:2.10590005;stroke-linecap:round;stroke-linejoin:round;stroke-miterlimit:10;stroke-dasharray:none;stroke-opacity:1"
         d="m 153.51,351.48 72.21,4.12 72.16,31.45 72.16,26.12 71.99,40.8" />
      <path
         inkscape:connector-curvature="0"
         id="path33"
         style="fill:#000000;fill-opacity:1;fill-rule:nonzero;stroke:none"
         d="m 156.97,351.58 c 0,-1.94 -1.57,-3.51 -3.51,-3.51 -1.94,0 -3.51,1.57 -3.51,3.51 0,1.93 1.57,3.51 3.51,3.51 1.94,0 3.51,-1.58 3.51,-3.51 z" />
      <path
         inkscape:connector-curvature="0"
         id="path35"
         style="fill:#000000;fill-opacity:1;fill-rule:nonzero;stroke:none"
         d="m 229.13,355.79 c 0,-1.94 -1.57,-3.51 -3.51,-3.51 -1.94,0 -3.51,1.57 -3.51,3.51 0,1.94 1.57,3.51 3.51,3.51 1.94,0 3.51,-1.57 3.51,-3.51 z" />
      <path
         inkscape:connector-curvature="0"
         id="path37"
         style="fill:#000000;fill-opacity:1;fill-rule:nonzero;stroke:none"
         d="m 301.29,387.24 c 0,-1.94 -1.57,-3.51 -3.51,-3.51 -1.93,0 -3.5,1.57 -3.5,3.51 0,1.93 1.57,3.51 3.5,3.51 1.94,0 3.51,-1.58 3.51,-3.51 z" />
      <path
         inkscape:connector-curvature="0"
         id="path39"
         style="fill:#000000;fill-opacity:1;fill-rule:nonzero;stroke:none"
         d="m 373.46,413.35 c 0,-1.94 -1.57,-3.51 -3.51,-3.51 -1.94,0 -3.51,1.57 -3.51,3.51 0,1.94 1.57,3.51 3.51,3.51 1.94,0 3.51,-1.57 3.51,-3.51 z" />
      <path
         inkscape:connector-curvature="0"
         id="path41"
         style="fill:#000000;fill-opacity:1;fill-rule:nonzero;stroke:none"
         d="m 445.34,454.06 c 0,-1.93 -1.57,-3.51 -3.51,-3.51 -1.94,0 -3.51,1.58 -3.51,3.51 0,1.94 1.57,3.51 3.51,3.51 1.94,0 3.51,-1.57 3.51,-3.51 z" />
      <g
         id="g43">
        <path
           inkscape:connector-curvature="0"
           id="path45"
           style="fill:none;stroke:#000000;stroke-width:2.10590005;stroke-linecap:round;stroke-linejoin:round;stroke-miterlimit:10;stroke-dasharray:4.2119, 4.2119;stroke-dashoffset:0;stroke-opacity:1"
           d="m 153.51,391.14 72.21,25.12 72.16,21.62 72.16,25.83 71.99,36.62" />
      </g>
      <path
         inkscape:connector-curvature="0"
         id="path47"
         style="fill:#000000;fill-opacity:1;fill-rule:nonzero;stroke:none"
         d="m 156.97,391.45 c 0,-1.94 -1.57,-3.51 -3.51,-3.51 -1.94,0 -3.51,1.57 -3.51,3.51 0,1.94 1.57,3.51 3.51,3.51 1.94,0 3.51,-1.57 3.51,-3.51 z" />
      <path
         inkscape:connector-curvature="0"
         id="path49"
         style="fill:#000000;fill-opacity:1;fill-rule:nonzero;stroke:none"
         d="m 229.13,416.44 c 0,-1.94 -1.57,-3.51 -3.51,-3.51 -1.94,0 -3.51,1.57 -3.51,3.51 0,1.94 1.57,3.51 3.51,3.51 1.94,0 3.51,-1.57 3.51,-3.51 z" />
      <path
         inkscape:connector-curvature="0"
         id="path51"
         style="fill:#000000;fill-opacity:1;fill-rule:nonzero;stroke:none"
         d="m 301.29,438.06 c 0,-1.94 -1.57,-3.51 -3.51,-3.51 -1.93,0 -3.5,1.57 -3.5,3.51 0,1.94 1.57,3.51 3.5,3.51 1.94,0 3.51,-1.57 3.51,-3.51 z" />
      <path
         inkscape:connector-curvature="0"
         id="path53"
         style="fill:#000000;fill-opacity:1;fill-rule:nonzero;stroke:none"
         d="m 373.46,463.89 c 0,-1.94 -1.57,-3.51 -3.51,-3.51 -1.94,0 -3.51,1.57 -3.51,3.51 0,1.94 1.57,3.51 3.51,3.51 1.94,0 3.51,-1.57 3.51,-3.51 z" />
      <path
         inkscape:connector-curvature="0"
         id="path55"
         style="fill:#000000;fill-opacity:1;fill-rule:nonzero;stroke:none"
         d="m 445.34,500.39 c 0,-1.93 -1.57,-3.51 -3.51,-3.51 -1.94,0 -3.51,1.58 -3.51,3.51 0,1.94 1.57,3.51 3.51,3.51 1.94,0 3.51,-1.57 3.51,-3.51 z" />
      <g
         id="g57">
        <path
           inkscape:connector-curvature="0"
           id="path59"
           style="fill:none;stroke:#000000;stroke-width:2.10590005;stroke-linecap:round;stroke-linejoin:round;stroke-miterlimit:10;stroke-dasharray:6.3178, 8.4237;stroke-dashoffset:0;stroke-opacity:1"
           d="m 153.51,368.47 72.21,20.55 72.16,9.26 72.16,26.96 71.99,20.49" />
      </g>
      <path
         inkscape:connector-curvature="0"
         id="path61"
         style="fill:#000000;fill-opacity:1;fill-rule:nonzero;stroke:none"
         d="m 156.97,368.7 c 0,-1.93 -1.57,-3.51 -3.51,-3.51 -1.94,0 -3.51,1.58 -3.51,3.51 0,1.94 1.57,3.51 3.51,3.51 1.94,0 3.51,-1.57 3.51,-3.51 z" />
      <path
         inkscape:connector-curvature="0"
         id="path63"
         style="fill:#000000;fill-opacity:1;fill-rule:nonzero;stroke:none"
         d="m 229.13,389.2 c 0,-1.94 -1.57,-3.51 -3.51,-3.51 -1.94,0 -3.51,1.57 -3.51,3.51 0,1.94 1.57,3.51 3.51,3.51 1.94,0 3.51,-1.57 3.51,-3.51 z" />
      <path
         inkscape:connector-curvature="0"
         id="path65"
         style="fill:#000000;fill-opacity:1;fill-rule:nonzero;stroke:none"
         d="m 301.29,398.47 c 0,-1.94 -1.57,-3.51 -3.51,-3.51 -1.93,0 -3.5,1.57 -3.5,3.51 0,1.94 1.57,3.51 3.5,3.51 1.94,0 3.51,-1.57 3.51,-3.51 z" />
      <path
         inkscape:connector-curvature="0"
         id="path67"
         style="fill:#000000;fill-opacity:1;fill-rule:nonzero;stroke:none"
         d="m 373.46,425.42 c 0,-1.93 -1.57,-3.51 -3.51,-3.51 -1.94,0 -3.51,1.58 -3.51,3.51 0,1.94 1.57,3.51 3.51,3.51 1.94,0 3.51,-1.57 3.51,-3.51 z" />
      <path
         inkscape:connector-curvature="0"
         id="path69"
         style="fill:#000000;fill-opacity:1;fill-rule:nonzero;stroke:none"
         d="m 445.34,445.92 c 0,-1.94 -1.57,-3.51 -3.51,-3.51 -1.94,0 -3.51,1.57 -3.51,3.51 0,1.94 1.57,3.51 3.51,3.51 1.94,0 3.51,-1.57 3.51,-3.51 z" />
      <path
         inkscape:connector-curvature="0"
         id="path71"
         style="fill:none;stroke:#000000;stroke-width:2.10590005;stroke-linecap:round;stroke-linejoin:round;stroke-miterlimit:10;stroke-dasharray:none;stroke-opacity:1"
         d="m 153.51,436.98 72.21,10.16 72.16,10.95 72.16,17.97 71.99,44.87" />
      <path
         inkscape:connector-curvature="0"
         id="path73"
         style="fill:#000000;fill-opacity:1;fill-rule:nonzero;stroke:none"
         d="m 153.6,441.85 4.77,-4.77 -4.77,-4.78 -4.77,4.78 z" />
      <path
         inkscape:connector-curvature="0"
         id="path75"
         style="fill:#000000;fill-opacity:1;fill-rule:nonzero;stroke:none"
         d="m 225.76,451.96 4.78,-4.78 -4.78,-4.77 -4.77,4.77 z" />
      <path
         inkscape:connector-curvature="0"
         id="path77"
         style="fill:#000000;fill-opacity:1;fill-rule:nonzero;stroke:none"
         d="m 297.93,462.91 4.77,-4.77 -4.77,-4.78 -4.78,4.78 z" />
      <path
         inkscape:connector-curvature="0"
         id="path79"
         style="fill:#000000;fill-opacity:1;fill-rule:nonzero;stroke:none"
         d="m 370.09,480.88 4.77,-4.77 -4.77,-4.78 -4.77,4.78 z" />
      <path
         inkscape:connector-curvature="0"
         id="path81"
         style="fill:#000000;fill-opacity:1;fill-rule:nonzero;stroke:none"
         d="m 441.97,525.81 4.77,-4.78 -4.77,-4.77 -4.77,4.77 z" />
      <g
         id="g83">
        <path
           inkscape:connector-curvature="0"
           id="path85"
           style="fill:none;stroke:#000000;stroke-width:2.10590005;stroke-linecap:round;stroke-linejoin:round;stroke-miterlimit:10;stroke-dasharray:4.2119, 4.2119;stroke-dashoffset:0;stroke-opacity:1"
           d="m 153.51,375.69 72.21,58.82 72.16,14.04 72.16,40.43 71.99,11.87" />
      </g>
      <path
         inkscape:connector-curvature="0"
         id="path87"
         style="fill:#000000;fill-opacity:1;fill-rule:nonzero;stroke:none"
         d="m 153.6,380.64 4.77,-4.78 -4.77,-4.77 -4.77,4.77 z" />
      <path
         inkscape:connector-curvature="0"
         id="path89"
         style="fill:#000000;fill-opacity:1;fill-rule:nonzero;stroke:none"
         d="m 225.76,439.32 4.78,-4.77 -4.78,-4.77 -4.77,4.77 z" />
      <path
         inkscape:connector-curvature="0"
         id="path91"
         style="fill:#000000;fill-opacity:1;fill-rule:nonzero;stroke:none"
         d="m 297.93,453.36 4.77,-4.77 -4.77,-4.77 -4.78,4.77 z" />
      <path
         inkscape:connector-curvature="0"
         id="path93"
         style="fill:#000000;fill-opacity:1;fill-rule:nonzero;stroke:none"
         d="m 370.09,493.8 4.77,-4.78 -4.77,-4.77 -4.77,4.77 z" />
      <path
         inkscape:connector-curvature="0"
         id="path95"
         style="fill:#000000;fill-opacity:1;fill-rule:nonzero;stroke:none"
         d="m 441.97,505.59 4.77,-4.77 -4.77,-4.78 -4.77,4.78 z" />
      <g
         id="g97">
        <g
           clip-path="url(#clipPath103)"
           id="g99">
          <text
             id="text107"
             style="font-variant:normal;font-weight:normal;font-size:12.625px;font-family:Calibri;-inkscape-font-specification:Calibri;writing-mode:lr-tb;fill:#000000;fill-opacity:1;fill-rule:nonzero;stroke:none"
             transform="matrix(1,0,0,-1,89.75,302.88)">
            <tspan
               id="tspan105"
               sodipodi:role="line"
               y="0"
               x="0 6.4387498 9.5445004">4.5</tspan>
          </text>
        </g>
      </g>
      <g
         id="g109">
        <g
           clip-path="url(#clipPath115)"
           id="g111">
          <text
             id="text119"
             style="font-variant:normal;font-weight:normal;font-size:12.625px;font-family:Calibri;-inkscape-font-specification:Calibri;writing-mode:lr-tb;fill:#000000;fill-opacity:1;fill-rule:nonzero;stroke:none"
             transform="matrix(1,0,0,-1,99.35,340.48)">
            <tspan
               id="tspan117"
               y="0"
               x="0">5</tspan>
          </text>
        </g>
      </g>
      <g
         id="g121">
        <g
           clip-path="url(#clipPath127)"
           id="g123">
          <text
             id="text131"
             style="font-variant:normal;font-weight:normal;font-size:12.64999962px;font-family:Calibri;-inkscape-font-specification:Calibri;writing-mode:lr-tb;fill:#000000;fill-opacity:1;fill-rule:nonzero;stroke:none"
             transform="matrix(1,0,0,-1,89.75,378.1)">
            <tspan
               id="tspan129"
               sodipodi:role="line"
               y="0"
               x="0 6.4135499 9.5507498">5.5</tspan>
          </text>
        </g>
      </g>
      <g
         id="g133">
        <g
           clip-path="url(#clipPath139)"
           id="g135">
          <text
             id="text143"
             style="font-variant:normal;font-weight:normal;font-size:12.625px;font-family:Calibri;-inkscape-font-specification:Calibri;writing-mode:lr-tb;fill:#000000;fill-opacity:1;fill-rule:nonzero;stroke:none"
             transform="matrix(1,0,0,-1,99.35,415.7)">
            <tspan
               id="tspan141"
               y="0"
               x="0">6</tspan>
          </text>
        </g>
      </g>
      <g
         id="g145">
        <g
           clip-path="url(#clipPath151)"
           id="g147">
          <text
             id="text155"
             style="font-variant:normal;font-weight:normal;font-size:12.625px;font-family:Calibri;-inkscape-font-specification:Calibri;writing-mode:lr-tb;fill:#000000;fill-opacity:1;fill-rule:nonzero;stroke:none"
             transform="matrix(1,0,0,-1,89.75,453.3)">
            <tspan
               id="tspan153"
               sodipodi:role="line"
               y="0"
               x="0 6.4387498 9.5445004">6.5</tspan>
          </text>
        </g>
      </g>
      <g
         id="g157">
        <g
           clip-path="url(#clipPath163)"
           id="g159">
          <text
             id="text167"
             style="font-variant:normal;font-weight:normal;font-size:12.64999962px;font-family:Calibri;-inkscape-font-specification:Calibri;writing-mode:lr-tb;fill:#000000;fill-opacity:1;fill-rule:nonzero;stroke:none"
             transform="matrix(1,0,0,-1,99.35,490.92)">
            <tspan
               id="tspan165"
               y="0"
               x="0">7</tspan>
          </text>
        </g>
      </g>
      <g
         id="g169">
        <g
           clip-path="url(#clipPath175)"
           id="g171">
          <text
             id="text179"
             style="font-variant:normal;font-weight:normal;font-size:12.625px;font-family:Calibri;-inkscape-font-specification:Calibri;writing-mode:lr-tb;fill:#000000;fill-opacity:1;fill-rule:nonzero;stroke:none"
             transform="matrix(1,0,0,-1,89.75,528.53)">
            <tspan
               id="tspan177"
               sodipodi:role="line"
               y="0"
               x="0 6.4387498 9.5445004">7.5</tspan>
          </text>
        </g>
      </g>
      <g
         id="g181">
        <g
           clip-path="url(#clipPath187)"
           id="g183">
          <text
             id="text191"
             style="font-variant:normal;font-weight:normal;font-size:12.64999962px;font-family:Calibri;-inkscape-font-specification:Calibri;writing-mode:lr-tb;fill:#000000;fill-opacity:1;fill-rule:nonzero;stroke:none"
             transform="matrix(1,0,0,-1,148.43,286.45)">
            <tspan
               id="tspan189"
               sodipodi:role="line"
               y="0"
               x="0 3.925">-8</tspan>
          </text>
        </g>
      </g>
      <g
         id="g193">
        <g
           clip-path="url(#clipPath199)"
           id="g195">
          <text
             id="text203"
             style="font-variant:normal;font-weight:normal;font-size:12.64999962px;font-family:Calibri;-inkscape-font-specification:Calibri;writing-mode:lr-tb;fill:#000000;fill-opacity:1;fill-rule:nonzero;stroke:none"
             transform="matrix(1,0,0,-1,220.58,286.45)">
            <tspan
               id="tspan201"
               sodipodi:role="line"
               y="0"
               x="0 3.925">-4</tspan>
          </text>
        </g>
      </g>
      <g
         id="g205">
        <g
           clip-path="url(#clipPath211)"
           id="g207">
          <text
             id="text215"
             style="font-variant:normal;font-weight:normal;font-size:12.64999962px;font-family:Calibri;-inkscape-font-specification:Calibri;writing-mode:lr-tb;fill:#000000;fill-opacity:1;fill-rule:nonzero;stroke:none"
             transform="matrix(1,0,0,-1,285.77,286.45)">
            <tspan
               id="tspan213"
               sodipodi:role="line"
               y="0"
               x="0 6.7550998 12.94095 18.00095">Base</tspan>
          </text>
        </g>
      </g>
      <g
         id="g217">
        <g
           clip-path="url(#clipPath223)"
           id="g219">
          <text
             id="text227"
             style="font-variant:normal;font-weight:normal;font-size:12.64999962px;font-family:Calibri;-inkscape-font-specification:Calibri;writing-mode:lr-tb;fill:#000000;fill-opacity:1;fill-rule:nonzero;stroke:none"
             transform="matrix(1,0,0,-1,363.67,286.45)">
            <tspan
               id="tspan225"
               sodipodi:role="line"
               y="0"
               x="0 6.1746998">+4</tspan>
          </text>
        </g>
      </g>
      <g
         id="g229">
        <g
           clip-path="url(#clipPath235)"
           id="g231">
          <text
             id="text239"
             style="font-variant:normal;font-weight:normal;font-size:12.64999962px;font-family:Calibri;-inkscape-font-specification:Calibri;writing-mode:lr-tb;fill:#000000;fill-opacity:1;fill-rule:nonzero;stroke:none"
             transform="matrix(1,0,0,-1,435.82,286.45)">
            <tspan
               id="tspan237"
               sodipodi:role="line"
               y="0"
               x="0 6.1999998">+8</tspan>
          </text>
        </g>
      </g>
      <g
         id="g241">
        <g
           clip-path="url(#clipPath247)"
           id="g243">
          <text
             id="text251"
             style="font-variant:normal;font-weight:normal;font-size:14.05000019px;font-family:Calibri;-inkscape-font-specification:Calibri;writing-mode:lr-tb;fill:#000000;fill-opacity:1;fill-rule:nonzero;stroke:none"
             transform="matrix(-4.4e-8,1,1,4.4e-8,81.875,376.35)">
            <tspan
               id="tspan249"
               sodipodi:role="line"
               y="0"
               x="0 8.1349497 14.612 21.6089 26.414 33.143951 39.902 46.898899 49.72295 57.295898 64.025848 68.802849 71.907898 79.213898">Average Rating</tspan>
          </text>
        </g>
      </g>
      <g
         id="g253">
        <g
           clip-path="url(#clipPath259)"
           id="g255">
          <text
             id="text263"
             style="font-variant:normal;font-weight:normal;font-size:14.05000019px;font-family:Calibri;-inkscape-font-specification:Calibri;writing-mode:lr-tb;fill:#000000;fill-opacity:1;fill-rule:nonzero;stroke:none"
             transform="matrix(1,0,0,-1,256.08,265.4)">
            <tspan
               id="tspan261"
               sodipodi:role="line"
               y="0"
               x="0 7.2638502 10.397 15.15995 21.060949 28.366949 31.724899 39.592899 46.322849 51.113899 54.218948 60.948898 65.725899 68.830948 76.136948">Pitch Variation</tspan>
          </text>
        </g>
      </g>
      <path
         inkscape:connector-curvature="0"
         id="path265"
         style="fill:none;stroke:#000000;stroke-width:2.10590005;stroke-linecap:round;stroke-linejoin:round;stroke-miterlimit:10;stroke-dasharray:none;stroke-opacity:1"
         d="M 501.12,443.4 H 536.5" />
      <path
         inkscape:connector-curvature="0"
         id="path267"
         style="fill:#000000;fill-opacity:1;fill-rule:nonzero;stroke:none"
         d="m 521.95,443.63 c 0,-1.94 -1.57,-3.51 -3.51,-3.51 -1.94,0 -3.51,1.57 -3.51,3.51 0,1.94 1.57,3.51 3.51,3.51 1.94,0 3.51,-1.57 3.51,-3.51 z" />
      <g
         id="g269">
        <g
           clip-path="url(#clipPath275)"
           id="g271">
          <text
             id="text279"
             style="font-variant:normal;font-weight:normal;font-size:12.64999962px;font-family:Calibri;-inkscape-font-specification:Calibri;writing-mode:lr-tb;fill:#000000;fill-opacity:1;fill-rule:nonzero;stroke:none"
             transform="matrix(1,0,0,-1,540.58,439.65)">
            <tspan
               id="tspan277"
               y="0"
               x="0">1</tspan>
          </text>
        </g>
      </g>
      <g
         id="g281">
        <path
           inkscape:connector-curvature="0"
           id="path283"
           style="fill:none;stroke:#000000;stroke-width:2.10590005;stroke-linecap:round;stroke-linejoin:round;stroke-miterlimit:10;stroke-dasharray:4.2119, 4.2119;stroke-dashoffset:0;stroke-opacity:1"
           d="M 501.12,419.71 H 536.5" />
      </g>
      <path
         inkscape:connector-curvature="0"
         id="path285"
         style="fill:#000000;fill-opacity:1;fill-rule:nonzero;stroke:none"
         d="m 521.95,420.05 c 0,-1.94 -1.57,-3.51 -3.51,-3.51 -1.94,0 -3.51,1.57 -3.51,3.51 0,1.93 1.57,3.51 3.51,3.51 1.94,0 3.51,-1.58 3.51,-3.51 z" />
      <g
         id="g287">
        <g
           clip-path="url(#clipPath293)"
           id="g289">
          <text
             id="text297"
             style="font-variant:normal;font-weight:normal;font-size:12.64999962px;font-family:Calibri;-inkscape-font-specification:Calibri;writing-mode:lr-tb;fill:#000000;fill-opacity:1;fill-rule:nonzero;stroke:none"
             transform="matrix(1,0,0,-1,540.58,415.95)">
            <tspan
               id="tspan295"
               y="0"
               x="0">2</tspan>
          </text>
        </g>
      </g>
      <g
         id="g299">
        <path
           inkscape:connector-curvature="0"
           id="path301"
           style="fill:none;stroke:#000000;stroke-width:2.10590005;stroke-linecap:round;stroke-linejoin:round;stroke-miterlimit:10;stroke-dasharray:6.3178, 8.4237;stroke-dashoffset:0;stroke-opacity:1"
           d="M 501.12,396.02 H 536.5" />
      </g>
      <path
         inkscape:connector-curvature="0"
         id="path303"
         style="fill:#000000;fill-opacity:1;fill-rule:nonzero;stroke:none"
         d="m 521.95,396.18 c 0,-1.94 -1.57,-3.51 -3.51,-3.51 -1.94,0 -3.51,1.57 -3.51,3.51 0,1.94 1.57,3.51 3.51,3.51 1.94,0 3.51,-1.57 3.51,-3.51 z" />
      <g
         id="g305">
        <g
           clip-path="url(#clipPath311)"
           id="g307">
          <text
             id="text315"
             style="font-variant:normal;font-weight:normal;font-size:12.64999962px;font-family:Calibri;-inkscape-font-specification:Calibri;writing-mode:lr-tb;fill:#000000;fill-opacity:1;fill-rule:nonzero;stroke:none"
             transform="matrix(1,0,0,-1,540.58,392.25)">
            <tspan
               id="tspan313"
               y="0"
               x="0">3</tspan>
          </text>
        </g>
      </g>
      <path
         inkscape:connector-curvature="0"
         id="path317"
         style="fill:none;stroke:#000000;stroke-width:2.10590005;stroke-linecap:round;stroke-linejoin:round;stroke-miterlimit:10;stroke-dasharray:none;stroke-opacity:1"
         d="M 501.12,372.33 H 536.5" />
      <path
         inkscape:connector-curvature="0"
         id="path319"
         style="fill:#000000;fill-opacity:1;fill-rule:nonzero;stroke:none"
         d="m 518.58,375.82 3.37,-3.37 -3.37,-3.37 -3.37,3.37 z" />
      <g
         id="g321">
        <g
           clip-path="url(#clipPath327)"
           id="g323">
          <text
             id="text331"
             style="font-variant:normal;font-weight:normal;font-size:12.625px;font-family:Calibri;-inkscape-font-specification:Calibri;writing-mode:lr-tb;fill:#000000;fill-opacity:1;fill-rule:nonzero;stroke:none"
             transform="matrix(1,0,0,-1,540.58,368.55)">
            <tspan
               id="tspan329"
               y="0"
               x="0">4</tspan>
          </text>
        </g>
      </g>
      <g
         id="g333">
        <path
           inkscape:connector-curvature="0"
           id="path335"
           style="fill:none;stroke:#000000;stroke-width:2.10590005;stroke-linecap:round;stroke-linejoin:round;stroke-miterlimit:10;stroke-dasharray:4.2119, 4.2119;stroke-dashoffset:0;stroke-opacity:1"
           d="M 501.12,348.63 H 536.5" />
      </g>
      <path
         inkscape:connector-curvature="0"
         id="path337"
         style="fill:#000000;fill-opacity:1;fill-rule:nonzero;stroke:none"
         d="m 518.58,352.24 3.37,-3.37 -3.37,-3.37 -3.37,3.37 z" />
      <g
         id="g339">
        <g
           clip-path="url(#clipPath345)"
           id="g341">
          <text
             id="text349"
             style="font-variant:normal;font-weight:normal;font-size:12.625px;font-family:Calibri;-inkscape-font-specification:Calibri;writing-mode:lr-tb;fill:#000000;fill-opacity:1;fill-rule:nonzero;stroke:none"
             transform="matrix(1,0,0,-1,540.58,344.85)">
            <tspan
               id="tspan347"
               y="0"
               x="0">5</tspan>
          </text>
        </g>
      </g>
      <path
         inkscape:connector-curvature="0"
         id="path351"
         style="fill:none;stroke:#d9d9d9;stroke-width:1.05299997;stroke-linecap:butt;stroke-linejoin:round;stroke-miterlimit:10;stroke-dasharray:none;stroke-opacity:1"
         d="M 50.83,244.33 H 561.02 V 547.71 H 50.83 Z" />
    </g>
  </g>
</svg>
